<svg xmlns="http://www.w3.org/2000/svg" xmlns:xlink="http://www.w3.org/1999/xlink" width="924" zoomAndPan="magnify" viewBox="0 0 693 281.25" height="375" preserveAspectRatio="xMidYMid meet" version="1.0"><defs><g/><clipPath id="dfb1e72c7c"><path d="M 76.050781 75.53125 L 199 75.53125 L 199 182 L 76.050781 182 Z M 76.050781 75.53125 " clip-rule="nonzero"/></clipPath><clipPath id="e73f71ed7f"><path d="M 103.375 75.53125 L 198.957031 75.53125 L 171.632812 182.085938 L 76.050781 182.085938 L 103.375 75.53125 " clip-rule="nonzero"/></clipPath><clipPath id="06d089b1f8"><path d="M 158.058594 90.898438 L 617 90.898438 L 617 206 L 158.058594 206 Z M 158.058594 90.898438 " clip-rule="nonzero"/></clipPath><clipPath id="f3aafcf26a"><path d="M 188.136719 90.898438 L 617.070312 90.898438 L 586.996094 205.652344 L 158.058594 205.652344 L 188.136719 90.898438 " clip-rule="nonzero"/></clipPath></defs><g clip-path="url(#dfb1e72c7c)"><g clip-path="url(#e73f71ed7f)"><path fill="#130a48" d="M 76.050781 75.53125 L 199 75.53125 L 199 181.40625 L 76.050781 181.40625 Z M 76.050781 75.53125 " fill-opacity="1" fill-rule="nonzero"/></g></g><path fill="#130a48" d="M 104.128906 77.992188 L 171.203125 77.992188 L 171.203125 179.628906 L 104.128906 179.628906 L 104.128906 77.992188 " fill-opacity="1" fill-rule="nonzero"/><g fill="#ffffff" fill-opacity="1"><g transform="translate(107.423871, 161.596065)"><g><path d="M 39.015625 -30 L 59.59375 0 L 42.125 0 L 29.75 -18.28125 L 17.375 0 L 0.40625 0 L 20.90625 -29.34375 L 1.71875 -57.375 L 18.6875 -57.375 L 29.75 -40.65625 L 40.828125 -57.375 L 57.953125 -57.375 Z M 39.015625 -30 "/></g></g></g><g clip-path="url(#06d089b1f8)"><g clip-path="url(#f3aafcf26a)"><path fill="#130a48" d="M 158.058594 90.898438 L 616.71875 90.898438 L 616.71875 205.566406 L 158.058594 205.566406 Z M 158.058594 90.898438 " fill-opacity="1" fill-rule="nonzero"/></g></g><path fill="#130a48" d="M 187.566406 96.433594 L 588.589844 96.433594 L 588.589844 199.09375 L 187.566406 199.09375 L 187.566406 96.433594 " fill-opacity="1" fill-rule="nonzero"/><g fill="#ffffff" fill-opacity="1"><g transform="translate(190.845696, 175.940182)"><g><path d="M 45.171875 -14.34375 L 14.671875 -14.34375 L 8.359375 0 L -0.078125 0 L 25.90625 -57.375 L 34.015625 -57.375 L 60.078125 0 L 51.46875 0 Z M 42.296875 -20.90625 L 29.921875 -49.015625 L 17.546875 -20.90625 Z M 42.296875 -20.90625 "/></g></g></g><g fill="#ffffff" fill-opacity="1"><g transform="translate(250.845008, 175.940182)"><g><path d="M 26.390625 0.484375 C 21.960938 0.484375 18.015625 -0.46875 14.546875 -2.375 C 11.078125 -4.289062 8.359375 -6.925781 6.390625 -10.28125 C 4.421875 -13.644531 3.4375 -17.457031 3.4375 -21.71875 C 3.4375 -25.976562 4.421875 -29.789062 6.390625 -33.15625 C 8.359375 -36.519531 11.078125 -39.144531 14.546875 -41.03125 C 18.015625 -42.914062 21.960938 -43.859375 26.390625 -43.859375 C 30.328125 -43.859375 33.835938 -43.0625 36.921875 -41.46875 C 40.015625 -39.882812 42.40625 -37.59375 44.09375 -34.59375 L 38.109375 -30.734375 C 36.742188 -32.816406 35.050781 -34.375 33.03125 -35.40625 C 31.007812 -36.445312 28.769531 -36.96875 26.3125 -36.96875 C 23.46875 -36.96875 20.910156 -36.335938 18.640625 -35.078125 C 16.378906 -33.828125 14.601562 -32.039062 13.3125 -29.71875 C 12.03125 -27.394531 11.390625 -24.726562 11.390625 -21.71875 C 11.390625 -18.65625 12.03125 -15.960938 13.3125 -13.640625 C 14.601562 -11.328125 16.378906 -9.539062 18.640625 -8.28125 C 20.910156 -7.019531 23.46875 -6.390625 26.3125 -6.390625 C 28.769531 -6.390625 31.007812 -6.910156 33.03125 -7.953125 C 35.050781 -8.992188 36.742188 -10.550781 38.109375 -12.625 L 44.09375 -8.859375 C 42.40625 -5.847656 40.015625 -3.535156 36.921875 -1.921875 C 33.835938 -0.316406 30.328125 0.484375 26.390625 0.484375 Z M 26.390625 0.484375 "/></g></g></g><g fill="#ffffff" fill-opacity="1"><g transform="translate(297.647749, 175.940182)"><g><path d="M 23.28125 -43.859375 C 29.289062 -43.859375 33.894531 -42.378906 37.09375 -39.421875 C 40.289062 -36.472656 41.890625 -32.078125 41.890625 -26.234375 L 41.890625 0 L 34.421875 0 L 34.421875 -5.734375 C 33.109375 -3.710938 31.238281 -2.171875 28.8125 -1.109375 C 26.382812 -0.046875 23.503906 0.484375 20.171875 0.484375 C 15.304688 0.484375 11.410156 -0.6875 8.484375 -3.03125 C 5.554688 -5.382812 4.09375 -8.472656 4.09375 -12.296875 C 4.09375 -16.117188 5.484375 -19.191406 8.265625 -21.515625 C 11.054688 -23.835938 15.488281 -25 21.5625 -25 L 34.015625 -25 L 34.015625 -26.5625 C 34.015625 -29.945312 33.03125 -32.539062 31.0625 -34.34375 C 29.09375 -36.144531 26.195312 -37.046875 22.375 -37.046875 C 19.8125 -37.046875 17.296875 -36.625 14.828125 -35.78125 C 12.367188 -34.9375 10.296875 -33.800781 8.609375 -32.375 L 5.328125 -38.28125 C 7.566406 -40.082031 10.242188 -41.460938 13.359375 -42.421875 C 16.472656 -43.378906 19.78125 -43.859375 23.28125 -43.859375 Z M 21.46875 -5.578125 C 24.476562 -5.578125 27.078125 -6.242188 29.265625 -7.578125 C 31.453125 -8.921875 33.035156 -10.820312 34.015625 -13.28125 L 34.015625 -19.34375 L 21.890625 -19.34375 C 15.222656 -19.34375 11.890625 -17.101562 11.890625 -12.625 C 11.890625 -10.4375 12.734375 -8.710938 14.421875 -7.453125 C 16.117188 -6.203125 18.46875 -5.578125 21.46875 -5.578125 Z M 21.46875 -5.578125 "/></g></g></g><g fill="#ffffff" fill-opacity="1"><g transform="translate(346.66357, 175.940182)"><g><path d="M 48.4375 -60.828125 L 48.4375 0 L 40.90625 0 L 40.90625 -6.890625 C 39.15625 -4.484375 36.941406 -2.648438 34.265625 -1.390625 C 31.585938 -0.140625 28.632812 0.484375 25.40625 0.484375 C 21.195312 0.484375 17.425781 -0.441406 14.09375 -2.296875 C 10.757812 -4.148438 8.148438 -6.757812 6.265625 -10.125 C 4.378906 -13.488281 3.4375 -17.351562 3.4375 -21.71875 C 3.4375 -26.09375 4.378906 -29.945312 6.265625 -33.28125 C 8.148438 -36.613281 10.757812 -39.207031 14.09375 -41.0625 C 17.425781 -42.925781 21.195312 -43.859375 25.40625 -43.859375 C 28.519531 -43.859375 31.390625 -43.269531 34.015625 -42.09375 C 36.640625 -40.914062 38.828125 -39.179688 40.578125 -36.890625 L 40.578125 -60.828125 Z M 26.0625 -6.390625 C 28.800781 -6.390625 31.289062 -7.03125 33.53125 -8.3125 C 35.769531 -9.601562 37.515625 -11.410156 38.765625 -13.734375 C 40.023438 -16.054688 40.65625 -18.71875 40.65625 -21.71875 C 40.65625 -24.726562 40.023438 -27.394531 38.765625 -29.71875 C 37.515625 -32.039062 35.769531 -33.828125 33.53125 -35.078125 C 31.289062 -36.335938 28.800781 -36.96875 26.0625 -36.96875 C 23.28125 -36.96875 20.78125 -36.335938 18.5625 -35.078125 C 16.351562 -33.828125 14.601562 -32.039062 13.3125 -29.71875 C 12.03125 -27.394531 11.390625 -24.726562 11.390625 -21.71875 C 11.390625 -18.71875 12.03125 -16.054688 13.3125 -13.734375 C 14.601562 -11.410156 16.351562 -9.601562 18.5625 -8.3125 C 20.78125 -7.03125 23.28125 -6.390625 26.0625 -6.390625 Z M 26.0625 -6.390625 "/></g></g></g><g fill="#ffffff" fill-opacity="1"><g transform="translate(402.564565, 175.940182)"><g><path d="M 46.71875 -21.46875 C 46.71875 -20.875 46.664062 -20.082031 46.5625 -19.09375 L 11.3125 -19.09375 C 11.800781 -15.269531 13.476562 -12.195312 16.34375 -9.875 C 19.21875 -7.550781 22.785156 -6.390625 27.046875 -6.390625 C 32.242188 -6.390625 36.425781 -8.140625 39.59375 -11.640625 L 43.9375 -6.5625 C 41.96875 -4.257812 39.519531 -2.507812 36.59375 -1.3125 C 33.675781 -0.113281 30.410156 0.484375 26.796875 0.484375 C 22.210938 0.484375 18.144531 -0.453125 14.59375 -2.328125 C 11.039062 -4.210938 8.289062 -6.847656 6.34375 -10.234375 C 4.40625 -13.628906 3.4375 -17.457031 3.4375 -21.71875 C 3.4375 -25.925781 4.378906 -29.722656 6.265625 -33.109375 C 8.148438 -36.503906 10.742188 -39.144531 14.046875 -41.03125 C 17.359375 -42.914062 21.09375 -43.859375 25.25 -43.859375 C 29.394531 -43.859375 33.09375 -42.914062 36.34375 -41.03125 C 39.601562 -39.144531 42.144531 -36.503906 43.96875 -33.109375 C 45.800781 -29.722656 46.71875 -25.84375 46.71875 -21.46875 Z M 25.25 -37.21875 C 21.476562 -37.21875 18.320312 -36.066406 15.78125 -33.765625 C 13.238281 -31.472656 11.75 -28.46875 11.3125 -24.75 L 39.1875 -24.75 C 38.75 -28.414062 37.257812 -31.410156 34.71875 -33.734375 C 32.175781 -36.054688 29.019531 -37.21875 25.25 -37.21875 Z M 25.25 -37.21875 "/></g></g></g><g fill="#ffffff" fill-opacity="1"><g transform="translate(452.727925, 175.940182)"><g><path d="M 61.796875 -43.859375 C 67.265625 -43.859375 71.597656 -42.269531 74.796875 -39.09375 C 77.992188 -35.925781 79.59375 -31.226562 79.59375 -25 L 79.59375 0 L 71.71875 0 L 71.71875 -24.09375 C 71.71875 -28.300781 70.75 -31.46875 68.8125 -33.59375 C 66.875 -35.726562 64.101562 -36.796875 60.5 -36.796875 C 56.507812 -36.796875 53.335938 -35.550781 50.984375 -33.0625 C 48.628906 -30.582031 47.453125 -27.019531 47.453125 -22.375 L 47.453125 0 L 39.59375 0 L 39.59375 -24.09375 C 39.59375 -28.300781 38.617188 -31.46875 36.671875 -33.59375 C 34.734375 -35.726562 31.960938 -36.796875 28.359375 -36.796875 C 24.367188 -36.796875 21.195312 -35.550781 18.84375 -33.0625 C 16.5 -30.582031 15.328125 -27.019531 15.328125 -22.375 L 15.328125 0 L 7.453125 0 L 7.453125 -43.4375 L 15 -43.4375 L 15 -36.96875 C 16.582031 -39.207031 18.65625 -40.914062 21.21875 -42.09375 C 23.789062 -43.269531 26.71875 -43.859375 30 -43.859375 C 33.382812 -43.859375 36.390625 -43.171875 39.015625 -41.796875 C 41.640625 -40.429688 43.660156 -38.441406 45.078125 -35.828125 C 46.722656 -38.335938 49.003906 -40.300781 51.921875 -41.71875 C 54.847656 -43.144531 58.140625 -43.859375 61.796875 -43.859375 Z M 61.796875 -43.859375 "/></g></g></g><g fill="#ffffff" fill-opacity="1"><g transform="translate(539.366265, 175.940182)"><g><path d="M 45.90625 -43.4375 L 24.84375 4.34375 C 22.976562 8.769531 20.800781 11.882812 18.3125 13.6875 C 15.832031 15.488281 12.84375 16.390625 9.34375 16.390625 C 7.207031 16.390625 5.140625 16.046875 3.140625 15.359375 C 1.148438 14.679688 -0.492188 13.6875 -1.796875 12.375 L 1.5625 6.46875 C 3.800781 8.601562 6.394531 9.671875 9.34375 9.671875 C 11.257812 9.671875 12.859375 9.164062 14.140625 8.15625 C 15.421875 7.144531 16.582031 5.410156 17.625 2.953125 L 19.015625 -0.078125 L -0.15625 -43.4375 L 8.03125 -43.4375 L 23.203125 -8.6875 L 38.203125 -43.4375 Z M 45.90625 -43.4375 "/></g></g></g><g fill="#e11111" fill-opacity="0.4"><g transform="translate(116.145638, 164.918337)"><g><path d="M 42.898438 0.261719 C 46.59375 2.253906 48.707031 3.035156 49.328125 2.605469 C 49.792969 2.265625 48.835938 0.628906 46.308594 -2.136719 C 45.132812 -3.363281 43.859375 -4.984375 42.320312 -7.074219 C 40.707031 -9.078125 39.347656 -10.855469 38.3125 -12.488281 C 37.453125 -13.730469 36.589844 -15.128906 35.71875 -16.691406 C 34.84375 -18.25 33.972656 -19.808594 33.175781 -21.453125 C 31.597656 -24.5 30.34375 -27.402344 29.339844 -30.078125 C 28.253906 -32.75 27.777344 -34.40625 27.984375 -35.136719 C 28.117188 -35.78125 29.234375 -37.515625 31.339844 -40.492188 C 33.363281 -43.464844 35.695312 -46.613281 38.335938 -50.097656 C 39.691406 -51.917969 41.132812 -53.667969 42.574219 -55.414062 C 43.933594 -57.15625 45.21875 -58.734375 46.433594 -60.152344 C 48.414062 -62.324219 49.699219 -63.984375 50.289062 -65.050781 C 50.738281 -65.710938 50.949219 -66.359375 50.921875 -66.921875 C 50.917969 -67.078125 50.828125 -67.234375 50.820312 -67.394531 C 49.933594 -69.273438 48.03125 -68.945312 45.105469 -66.410156 C 42.105469 -63.792969 37.625 -58.625 31.582031 -50.824219 C 29.917969 -48.75 28.558594 -47.003906 27.34375 -45.589844 C 26.050781 -44.089844 25.371094 -43.257812 25.289062 -43.253906 C 25.128906 -43.246094 24.675781 -44.425781 24.085938 -46.800781 C 23.335938 -49.164062 22.640625 -52.09375 21.84375 -55.496094 C 20.558594 -60.800781 19.683594 -64.199219 19.214844 -65.699219 C 18.667969 -67.113281 18.152344 -67.890625 17.667969 -68.027344 L 17.507812 -68.019531 C 17.1875 -68.003906 16.871094 -67.910156 16.640625 -67.738281 C 16.332031 -67.484375 16.101562 -67.234375 16.039062 -66.910156 C 15.894531 -66.585938 15.917969 -66.027344 15.957031 -65.226562 C 15.917969 -64.34375 15.964844 -63.308594 16.101562 -62.035156 C 16.214844 -59.636719 16.503906 -56.769531 16.980469 -53.433594 C 17.296875 -50.007812 17.773438 -46.667969 18.324219 -43.332031 C 18.898438 -39.597656 19.347656 -36.820312 19.671875 -34.914062 C 17.449219 -31.128906 15.742188 -28.25 14.628906 -26.359375 C 11.203125 -20.761719 8.5625 -15.597656 6.621094 -10.867188 C 4.597656 -6.132812 3.273438 -1.910156 2.644531 1.796875 C 2.140625 4.78125 1.992188 6.789062 2.046875 7.90625 C 2.078125 8.625 2.171875 8.941406 2.414062 8.929688 L 2.492188 8.925781 C 3.125 8.738281 4.839844 6.019531 7.46875 0.617188 C 8.339844 -1.34375 9.367188 -3.390625 10.546875 -5.527344 C 11.570312 -7.65625 12.671875 -9.785156 13.855469 -11.839844 C 15.921875 -15.617188 17.773438 -18.902344 19.484375 -21.703125 C 21.117188 -24.417969 22.015625 -25.738281 22.261719 -25.671875 C 22.425781 -25.519531 22.78125 -24.816406 23.476562 -23.566406 C 24.175781 -22.320312 24.886719 -20.75 25.765625 -19.03125 C 27.726562 -14.722656 30.222656 -10.914062 33.257812 -7.535156 C 36.296875 -4.152344 39.457031 -1.5 42.898438 0.261719 Z M 42.898438 0.261719 "/></g></g></g><g fill="#e11111" fill-opacity="1"><g transform="translate(112.365435, 161.471421)"><g><path d="M 42.898438 0.261719 C 46.59375 2.253906 48.707031 3.035156 49.328125 2.605469 C 49.792969 2.265625 48.835938 0.628906 46.308594 -2.136719 C 45.132812 -3.363281 43.859375 -4.984375 42.320312 -7.074219 C 40.707031 -9.078125 39.347656 -10.855469 38.3125 -12.488281 C 37.453125 -13.730469 36.589844 -15.128906 35.71875 -16.691406 C 34.84375 -18.25 33.972656 -19.808594 33.175781 -21.453125 C 31.597656 -24.5 30.34375 -27.402344 29.339844 -30.078125 C 28.253906 -32.75 27.777344 -34.40625 27.984375 -35.136719 C 28.117188 -35.78125 29.234375 -37.515625 31.339844 -40.492188 C 33.363281 -43.464844 35.695312 -46.613281 38.335938 -50.097656 C 39.691406 -51.917969 41.132812 -53.667969 42.574219 -55.414062 C 43.933594 -57.15625 45.21875 -58.734375 46.433594 -60.152344 C 48.414062 -62.324219 49.699219 -63.984375 50.289062 -65.050781 C 50.738281 -65.710938 50.949219 -66.359375 50.921875 -66.921875 C 50.917969 -67.078125 50.828125 -67.234375 50.820312 -67.394531 C 49.933594 -69.273438 48.03125 -68.945312 45.105469 -66.410156 C 42.105469 -63.792969 37.625 -58.625 31.582031 -50.824219 C 29.917969 -48.75 28.558594 -47.003906 27.34375 -45.589844 C 26.050781 -44.089844 25.371094 -43.257812 25.289062 -43.253906 C 25.128906 -43.246094 24.675781 -44.425781 24.085938 -46.800781 C 23.335938 -49.164062 22.640625 -52.09375 21.84375 -55.496094 C 20.558594 -60.800781 19.683594 -64.199219 19.214844 -65.699219 C 18.667969 -67.113281 18.152344 -67.890625 17.667969 -68.027344 L 17.507812 -68.019531 C 17.1875 -68.003906 16.871094 -67.910156 16.640625 -67.738281 C 16.332031 -67.484375 16.101562 -67.234375 16.039062 -66.910156 C 15.894531 -66.585938 15.917969 -66.027344 15.957031 -65.226562 C 15.917969 -64.34375 15.964844 -63.308594 16.101562 -62.035156 C 16.214844 -59.636719 16.503906 -56.769531 16.980469 -53.433594 C 17.296875 -50.007812 17.773438 -46.667969 18.324219 -43.332031 C 18.898438 -39.597656 19.347656 -36.820312 19.671875 -34.914062 C 17.449219 -31.128906 15.742188 -28.25 14.628906 -26.359375 C 11.203125 -20.761719 8.5625 -15.597656 6.621094 -10.867188 C 4.597656 -6.132812 3.273438 -1.910156 2.644531 1.796875 C 2.140625 4.78125 1.992188 6.789062 2.046875 7.90625 C 2.078125 8.625 2.171875 8.941406 2.414062 8.929688 L 2.492188 8.925781 C 3.125 8.738281 4.839844 6.019531 7.46875 0.617188 C 8.339844 -1.34375 9.367188 -3.390625 10.546875 -5.527344 C 11.570312 -7.65625 12.671875 -9.785156 13.855469 -11.839844 C 15.921875 -15.617188 17.773438 -18.902344 19.484375 -21.703125 C 21.117188 -24.417969 22.015625 -25.738281 22.261719 -25.671875 C 22.425781 -25.519531 22.78125 -24.816406 23.476562 -23.566406 C 24.175781 -22.320312 24.886719 -20.75 25.765625 -19.03125 C 27.726562 -14.722656 30.222656 -10.914062 33.257812 -7.535156 C 36.296875 -4.152344 39.457031 -1.5 42.898438 0.261719 Z M 42.898438 0.261719 "/></g></g></g></svg>