<svg xmlns="http://www.w3.org/2000/svg" xmlns:xlink="http://www.w3.org/1999/xlink" width="924" zoomAndPan="magnify" viewBox="0 0 693 281.999989" height="376" preserveAspectRatio="xMidYMid meet" version="1.0"><defs><g/><clipPath id="b21c8008c8"><path d="M 75.332031 75.128906 L 199.832031 75.128906 L 199.832031 183 L 75.332031 183 Z M 75.332031 75.128906 " clip-rule="nonzero"/></clipPath><clipPath id="3895268abf"><path d="M 102.996094 75.128906 L 199.785156 75.128906 L 172.117188 183.027344 L 75.332031 183.027344 L 102.996094 75.128906 " clip-rule="nonzero"/></clipPath><clipPath id="9efe4a5b45"><path d="M 75.332031 75.128906 L 199.980469 75.128906 L 199.980469 182.824219 L 75.332031 182.824219 Z M 75.332031 75.128906 " clip-rule="nonzero"/></clipPath><clipPath id="017422c9fc"><path d="M 103.042969 75.128906 L 199.980469 75.128906 L 172.269531 182.824219 L 75.332031 182.824219 L 103.042969 75.128906 " clip-rule="nonzero"/></clipPath><clipPath id="e6cd3612dc"><path d="M 152.988281 90.691406 L 618 90.691406 L 618 207 L 152.988281 207 Z M 152.988281 90.691406 " clip-rule="nonzero"/></clipPath><clipPath id="32bfebfd52"><path d="M 183.445312 90.691406 L 617.792969 90.691406 L 587.335938 206.890625 L 152.988281 206.890625 L 183.445312 90.691406 " clip-rule="nonzero"/></clipPath><clipPath id="8c54b8f008"><path d="M 153.011719 90.691406 L 617.679688 90.691406 L 617.679688 207.363281 L 153.011719 207.363281 Z M 153.011719 90.691406 " clip-rule="nonzero"/></clipPath><clipPath id="6c4321723f"><path d="M 183.457031 90.691406 L 617.65625 90.691406 L 587.210938 207.363281 L 153.011719 207.363281 L 183.457031 90.691406 " clip-rule="nonzero"/></clipPath></defs><g clip-path="url(#b21c8008c8)"><g clip-path="url(#3895268abf)"><path fill="#ffffff" d="M 75.332031 75.128906 L 199.832031 75.128906 L 199.832031 182.335938 L 75.332031 182.335938 Z M 75.332031 75.128906 " fill-opacity="1" fill-rule="nonzero"/></g></g><g clip-path="url(#9efe4a5b45)"><g clip-path="url(#017422c9fc)"><path stroke-linecap="butt" transform="matrix(0.998818, 0, 0, 0.995323, 75.331086, 75.130753)" fill="none" stroke-linejoin="miter" d="M 27.744676 -0.00185543 L 124.796887 -0.00185543 L 97.053158 108.199512 L 0.00094685 108.199512 L 27.744676 -0.00185543 " stroke="#000000" stroke-width="1.504219" stroke-opacity="1" stroke-miterlimit="4"/></g></g><g fill="#130a48" fill-opacity="1"><g transform="translate(101.713731, 162.279052)"><g><path d="M 39.515625 -30.375 L 60.34375 0 L 42.65625 0 L 30.125 -18.515625 L 17.59375 0 L 0.421875 0 L 21.171875 -29.71875 L 1.75 -58.09375 L 18.921875 -58.09375 L 30.125 -41.171875 L 41.328125 -58.09375 L 58.6875 -58.09375 Z M 39.515625 -30.375 "/></g></g></g><g clip-path="url(#e6cd3612dc)"><g clip-path="url(#32bfebfd52)"><path fill="#ffffff" d="M 152.988281 90.691406 L 617.4375 90.691406 L 617.4375 206.804688 L 152.988281 206.804688 Z M 152.988281 90.691406 " fill-opacity="1" fill-rule="nonzero"/></g></g><g clip-path="url(#8c54b8f008)"><g clip-path="url(#6c4321723f)"><path stroke-linecap="butt" transform="matrix(0.996961, 0, 0, 1.00134, 153.011399, 90.690917)" fill="none" stroke-linejoin="miter" d="M 30.538441 0.000489072 L 466.061257 0.000489072 L 435.523136 116.516181 L 0.000320609 116.516181 L 30.538441 0.000489072 " stroke="#000000" stroke-width="1.504219" stroke-opacity="1" stroke-miterlimit="4"/></g></g><g fill="#130a48" fill-opacity="1"><g transform="translate(191.596625, 177.690878)"><g><path d="M 45.734375 -14.53125 L 14.859375 -14.53125 L 8.46875 0 L -0.078125 0 L 26.234375 -58.09375 L 34.4375 -58.09375 L 60.84375 0 L 52.125 0 Z M 42.828125 -21.171875 L 30.296875 -49.640625 L 17.765625 -21.171875 Z M 42.828125 -21.171875 "/></g></g></g><g fill="#130a48" fill-opacity="1"><g transform="translate(252.346905, 177.690878)"><g><path d="M 26.71875 0.5 C 22.238281 0.5 18.242188 -0.46875 14.734375 -2.40625 C 11.222656 -4.34375 8.46875 -7.007812 6.46875 -10.40625 C 4.476562 -13.8125 3.484375 -17.675781 3.484375 -22 C 3.484375 -26.3125 4.476562 -30.164062 6.46875 -33.5625 C 8.46875 -36.96875 11.222656 -39.625 14.734375 -41.53125 C 18.242188 -43.445312 22.238281 -44.40625 26.71875 -44.40625 C 30.707031 -44.40625 34.265625 -43.601562 37.390625 -42 C 40.515625 -40.394531 42.9375 -38.070312 44.65625 -35.03125 L 38.59375 -31.125 C 37.207031 -33.226562 35.488281 -34.804688 33.4375 -35.859375 C 31.394531 -36.910156 29.128906 -37.4375 26.640625 -37.4375 C 23.765625 -37.4375 21.175781 -36.796875 18.875 -35.515625 C 16.582031 -34.242188 14.785156 -32.429688 13.484375 -30.078125 C 12.179688 -27.734375 11.53125 -25.039062 11.53125 -22 C 11.53125 -18.894531 12.179688 -16.164062 13.484375 -13.8125 C 14.785156 -11.46875 16.582031 -9.65625 18.875 -8.375 C 21.175781 -7.101562 23.765625 -6.46875 26.640625 -6.46875 C 29.128906 -6.46875 31.394531 -6.992188 33.4375 -8.046875 C 35.488281 -9.097656 37.207031 -10.675781 38.59375 -12.78125 L 44.65625 -8.96875 C 42.9375 -5.925781 40.515625 -3.585938 37.390625 -1.953125 C 34.265625 -0.316406 30.707031 0.5 26.71875 0.5 Z M 26.71875 0.5 "/></g></g></g><g fill="#130a48" fill-opacity="1"><g transform="translate(299.735444, 177.690878)"><g><path d="M 23.578125 -44.40625 C 29.660156 -44.40625 34.316406 -42.910156 37.546875 -39.921875 C 40.785156 -36.929688 42.40625 -32.476562 42.40625 -26.5625 L 42.40625 0 L 34.859375 0 L 34.859375 -5.8125 C 33.535156 -3.757812 31.640625 -2.191406 29.171875 -1.109375 C 26.710938 -0.0351562 23.796875 0.5 20.421875 0.5 C 15.492188 0.5 11.550781 -0.6875 8.59375 -3.0625 C 5.632812 -5.445312 4.15625 -8.578125 4.15625 -12.453125 C 4.15625 -16.328125 5.5625 -19.4375 8.375 -21.78125 C 11.195312 -24.132812 15.679688 -25.3125 21.828125 -25.3125 L 34.4375 -25.3125 L 34.4375 -26.890625 C 34.4375 -30.316406 33.441406 -32.941406 31.453125 -34.765625 C 29.460938 -36.597656 26.53125 -37.515625 22.65625 -37.515625 C 20.0625 -37.515625 17.515625 -37.082031 15.015625 -36.21875 C 12.523438 -35.363281 10.425781 -34.21875 8.71875 -32.78125 L 5.390625 -38.765625 C 7.660156 -40.585938 10.375 -41.984375 13.53125 -42.953125 C 16.6875 -43.921875 20.035156 -44.40625 23.578125 -44.40625 Z M 21.75 -5.640625 C 24.789062 -5.640625 27.414062 -6.316406 29.625 -7.671875 C 31.84375 -9.035156 33.445312 -10.960938 34.4375 -13.453125 L 34.4375 -19.59375 L 22.15625 -19.59375 C 15.40625 -19.59375 12.03125 -17.320312 12.03125 -12.78125 C 12.03125 -10.570312 12.890625 -8.828125 14.609375 -7.546875 C 16.328125 -6.273438 18.707031 -5.640625 21.75 -5.640625 Z M 21.75 -5.640625 "/></g></g></g><g fill="#130a48" fill-opacity="1"><g transform="translate(349.36477, 177.690878)"><g><path d="M 49.046875 -61.59375 L 49.046875 0 L 41.421875 0 L 41.421875 -6.96875 C 39.648438 -4.53125 37.40625 -2.675781 34.6875 -1.40625 C 31.976562 -0.132812 28.992188 0.5 25.734375 0.5 C 21.472656 0.5 17.65625 -0.4375 14.28125 -2.3125 C 10.90625 -4.195312 8.257812 -6.84375 6.34375 -10.25 C 4.4375 -13.65625 3.484375 -17.570312 3.484375 -22 C 3.484375 -26.425781 4.4375 -30.328125 6.34375 -33.703125 C 8.257812 -37.078125 10.90625 -39.703125 14.28125 -41.578125 C 17.65625 -43.460938 21.472656 -44.40625 25.734375 -44.40625 C 28.890625 -44.40625 31.789062 -43.8125 34.4375 -42.625 C 37.09375 -41.4375 39.304688 -39.675781 41.078125 -37.34375 L 41.078125 -61.59375 Z M 26.390625 -6.46875 C 29.160156 -6.46875 31.675781 -7.117188 33.9375 -8.421875 C 36.207031 -9.722656 37.976562 -11.550781 39.25 -13.90625 C 40.53125 -16.257812 41.171875 -18.957031 41.171875 -22 C 41.171875 -25.039062 40.53125 -27.734375 39.25 -30.078125 C 37.976562 -32.429688 36.207031 -34.242188 33.9375 -35.515625 C 31.675781 -36.796875 29.160156 -37.4375 26.390625 -37.4375 C 23.566406 -37.4375 21.035156 -36.796875 18.796875 -35.515625 C 16.554688 -34.242188 14.785156 -32.429688 13.484375 -30.078125 C 12.179688 -27.734375 11.53125 -25.039062 11.53125 -22 C 11.53125 -18.957031 12.179688 -16.257812 13.484375 -13.90625 C 14.785156 -11.550781 16.554688 -9.722656 18.796875 -8.421875 C 21.035156 -7.117188 23.566406 -6.46875 26.390625 -6.46875 Z M 26.390625 -6.46875 "/></g></g></g><g fill="#130a48" fill-opacity="1"><g transform="translate(405.965457, 177.690878)"><g><path d="M 47.3125 -21.75 C 47.3125 -21.132812 47.253906 -20.332031 47.140625 -19.34375 L 11.453125 -19.34375 C 11.953125 -15.46875 13.65625 -12.351562 16.5625 -10 C 19.46875 -7.644531 23.078125 -6.46875 27.390625 -6.46875 C 32.648438 -6.46875 36.882812 -8.238281 40.09375 -11.78125 L 44.484375 -6.640625 C 42.492188 -4.316406 40.019531 -2.546875 37.0625 -1.328125 C 34.101562 -0.109375 30.796875 0.5 27.140625 0.5 C 22.492188 0.5 18.367188 -0.453125 14.765625 -2.359375 C 11.171875 -4.273438 8.390625 -6.945312 6.421875 -10.375 C 4.460938 -13.800781 3.484375 -17.675781 3.484375 -22 C 3.484375 -26.257812 4.4375 -30.101562 6.34375 -33.53125 C 8.257812 -36.957031 10.890625 -39.625 14.234375 -41.53125 C 17.578125 -43.445312 21.351562 -44.40625 25.5625 -44.40625 C 29.769531 -44.40625 33.519531 -43.445312 36.8125 -41.53125 C 40.101562 -39.625 42.675781 -36.957031 44.53125 -33.53125 C 46.382812 -30.101562 47.3125 -26.175781 47.3125 -21.75 Z M 25.5625 -37.6875 C 21.75 -37.6875 18.554688 -36.519531 15.984375 -34.1875 C 13.410156 -31.863281 11.898438 -28.820312 11.453125 -25.0625 L 39.671875 -25.0625 C 39.234375 -28.769531 37.726562 -31.800781 35.15625 -34.15625 C 32.582031 -36.507812 29.382812 -37.6875 25.5625 -37.6875 Z M 25.5625 -37.6875 "/></g></g></g><g fill="#130a48" fill-opacity="1"><g transform="translate(456.756668, 177.690878)"><g><path d="M 62.578125 -44.40625 C 68.109375 -44.40625 72.492188 -42.800781 75.734375 -39.59375 C 78.972656 -36.382812 80.59375 -31.625 80.59375 -25.3125 L 80.59375 0 L 72.625 0 L 72.625 -24.40625 C 72.625 -28.664062 71.640625 -31.875 69.671875 -34.03125 C 67.710938 -36.1875 64.90625 -37.265625 61.25 -37.265625 C 57.207031 -37.265625 54 -36.003906 51.625 -33.484375 C 49.25 -30.972656 48.0625 -27.363281 48.0625 -22.65625 L 48.0625 0 L 40.09375 0 L 40.09375 -24.40625 C 40.09375 -28.664062 39.109375 -31.875 37.140625 -34.03125 C 35.179688 -36.1875 32.375 -37.265625 28.71875 -37.265625 C 24.675781 -37.265625 21.460938 -36.003906 19.078125 -33.484375 C 16.703125 -30.972656 15.515625 -27.363281 15.515625 -22.65625 L 15.515625 0 L 7.546875 0 L 7.546875 -43.984375 L 15.1875 -43.984375 L 15.1875 -37.4375 C 16.789062 -39.707031 18.890625 -41.4375 21.484375 -42.625 C 24.085938 -43.8125 27.050781 -44.40625 30.375 -44.40625 C 33.8125 -44.40625 36.851562 -43.710938 39.5 -42.328125 C 42.15625 -40.941406 44.207031 -38.921875 45.65625 -36.265625 C 47.3125 -38.816406 49.617188 -40.8125 52.578125 -42.25 C 55.535156 -43.6875 58.867188 -44.40625 62.578125 -44.40625 Z M 62.578125 -44.40625 "/></g></g></g><g fill="#130a48" fill-opacity="1"><g transform="translate(544.479423, 177.690878)"><g><path d="M 46.484375 -43.984375 L 25.15625 4.40625 C 23.269531 8.882812 21.066406 12.035156 18.546875 13.859375 C 16.035156 15.679688 13.007812 16.59375 9.46875 16.59375 C 7.300781 16.59375 5.207031 16.25 3.1875 15.5625 C 1.175781 14.875 -0.492188 13.863281 -1.828125 12.53125 L 1.578125 6.5625 C 3.847656 8.71875 6.476562 9.796875 9.46875 9.796875 C 11.394531 9.796875 13.007812 9.28125 14.3125 8.25 C 15.613281 7.226562 16.789062 5.472656 17.84375 2.984375 L 19.25 -0.078125 L -0.171875 -43.984375 L 8.140625 -43.984375 L 23.484375 -8.796875 L 38.671875 -43.984375 Z M 46.484375 -43.984375 "/></g></g></g><g fill="#e11111" fill-opacity="0.4"><g transform="translate(115.930323, 165.643322)"><g><path d="M 43.441406 0.265625 C 47.179688 2.28125 49.324219 3.074219 49.953125 2.640625 C 50.421875 2.292969 49.453125 0.636719 46.894531 -2.164062 C 45.703125 -3.402344 44.410156 -5.046875 42.855469 -7.160156 C 41.222656 -9.191406 39.84375 -10.992188 38.792969 -12.644531 C 37.925781 -13.902344 37.050781 -15.320312 36.167969 -16.902344 C 35.285156 -18.480469 34.402344 -20.058594 33.59375 -21.722656 C 31.996094 -24.808594 30.726562 -27.75 29.707031 -30.457031 C 28.613281 -33.160156 28.128906 -34.839844 28.339844 -35.582031 C 28.46875 -36.234375 29.605469 -37.988281 31.734375 -41.003906 C 33.78125 -44.015625 36.148438 -47.203125 38.820312 -50.730469 C 40.195312 -52.574219 41.652344 -54.34375 43.109375 -56.113281 C 44.488281 -57.878906 45.789062 -59.476562 47.019531 -60.910156 C 49.027344 -63.109375 50.324219 -64.789062 50.925781 -65.871094 C 51.378906 -66.539062 51.59375 -67.199219 51.566406 -67.765625 C 51.558594 -67.925781 51.46875 -68.085938 51.464844 -68.246094 C 50.566406 -70.148438 48.636719 -69.816406 45.675781 -67.25 C 42.636719 -64.597656 38.097656 -59.367188 31.980469 -51.46875 C 30.296875 -49.363281 28.917969 -47.597656 27.6875 -46.164062 C 26.378906 -44.644531 25.691406 -43.804688 25.609375 -43.800781 C 25.449219 -43.792969 24.988281 -44.988281 24.390625 -47.390625 C 23.632812 -49.785156 22.929688 -52.75 22.121094 -56.199219 C 20.820312 -61.566406 19.933594 -65.007812 19.457031 -66.527344 C 18.90625 -67.960938 18.382812 -68.746094 17.890625 -68.886719 L 17.726562 -68.878906 C 17.40625 -68.863281 17.085938 -68.765625 16.851562 -68.59375 C 16.539062 -68.335938 16.304688 -68.082031 16.238281 -67.757812 C 16.09375 -67.425781 16.121094 -66.859375 16.15625 -66.050781 C 16.117188 -65.15625 16.164062 -64.105469 16.304688 -62.816406 C 16.417969 -60.390625 16.714844 -57.488281 17.195312 -54.105469 C 17.515625 -50.636719 17.996094 -47.257812 18.554688 -43.878906 C 19.136719 -40.097656 19.589844 -37.285156 19.921875 -35.355469 C 17.667969 -31.523438 15.9375 -28.605469 14.8125 -26.691406 C 11.347656 -21.023438 8.671875 -15.792969 6.703125 -11.003906 C 4.65625 -6.210938 3.3125 -1.933594 2.675781 1.820312 C 2.167969 4.84375 2.019531 6.875 2.070312 8.007812 C 2.105469 8.734375 2.199219 9.054688 2.441406 9.042969 L 2.523438 9.039062 C 3.164062 8.847656 4.898438 6.09375 7.5625 0.625 C 8.445312 -1.363281 9.484375 -3.433594 10.679688 -5.597656 C 11.714844 -7.75 12.832031 -9.910156 14.03125 -11.992188 C 16.125 -15.8125 17.996094 -19.140625 19.730469 -21.976562 C 21.382812 -24.726562 22.296875 -26.066406 22.542969 -25.996094 C 22.710938 -25.839844 23.066406 -25.128906 23.773438 -23.863281 C 24.480469 -22.601562 25.203125 -21.011719 26.09375 -19.273438 C 28.078125 -14.90625 30.605469 -11.054688 33.679688 -7.628906 C 36.753906 -4.207031 39.957031 -1.519531 43.441406 0.265625 Z M 43.441406 0.265625 "/></g></g></g><g fill="#e11111" fill-opacity="1"><g transform="translate(112.102414, 162.152901)"><g><path d="M 43.441406 0.265625 C 47.179688 2.28125 49.324219 3.074219 49.953125 2.640625 C 50.421875 2.292969 49.453125 0.636719 46.894531 -2.164062 C 45.703125 -3.402344 44.410156 -5.046875 42.855469 -7.160156 C 41.222656 -9.191406 39.84375 -10.992188 38.792969 -12.644531 C 37.925781 -13.902344 37.050781 -15.320312 36.167969 -16.902344 C 35.285156 -18.480469 34.402344 -20.058594 33.59375 -21.722656 C 31.996094 -24.808594 30.726562 -27.75 29.707031 -30.457031 C 28.613281 -33.160156 28.128906 -34.839844 28.339844 -35.582031 C 28.46875 -36.234375 29.605469 -37.988281 31.734375 -41.003906 C 33.78125 -44.015625 36.148438 -47.203125 38.820312 -50.730469 C 40.195312 -52.574219 41.652344 -54.34375 43.109375 -56.113281 C 44.488281 -57.878906 45.789062 -59.476562 47.019531 -60.910156 C 49.027344 -63.109375 50.324219 -64.789062 50.925781 -65.871094 C 51.378906 -66.539062 51.59375 -67.199219 51.566406 -67.765625 C 51.558594 -67.925781 51.46875 -68.085938 51.464844 -68.246094 C 50.566406 -70.148438 48.636719 -69.816406 45.675781 -67.25 C 42.636719 -64.597656 38.097656 -59.367188 31.980469 -51.46875 C 30.296875 -49.363281 28.917969 -47.597656 27.6875 -46.164062 C 26.378906 -44.644531 25.691406 -43.804688 25.609375 -43.800781 C 25.449219 -43.792969 24.988281 -44.988281 24.390625 -47.390625 C 23.632812 -49.785156 22.929688 -52.75 22.121094 -56.199219 C 20.820312 -61.566406 19.933594 -65.007812 19.457031 -66.527344 C 18.90625 -67.960938 18.382812 -68.746094 17.890625 -68.886719 L 17.726562 -68.878906 C 17.40625 -68.863281 17.085938 -68.765625 16.851562 -68.59375 C 16.539062 -68.335938 16.304688 -68.082031 16.238281 -67.757812 C 16.09375 -67.425781 16.121094 -66.859375 16.15625 -66.050781 C 16.117188 -65.15625 16.164062 -64.105469 16.304688 -62.816406 C 16.417969 -60.390625 16.714844 -57.488281 17.195312 -54.105469 C 17.515625 -50.636719 17.996094 -47.257812 18.554688 -43.878906 C 19.136719 -40.097656 19.589844 -37.285156 19.921875 -35.355469 C 17.667969 -31.523438 15.9375 -28.605469 14.8125 -26.691406 C 11.347656 -21.023438 8.671875 -15.792969 6.703125 -11.003906 C 4.65625 -6.210938 3.3125 -1.933594 2.675781 1.820312 C 2.167969 4.84375 2.019531 6.875 2.070312 8.007812 C 2.105469 8.734375 2.199219 9.054688 2.441406 9.042969 L 2.523438 9.039062 C 3.164062 8.847656 4.898438 6.09375 7.5625 0.625 C 8.445312 -1.363281 9.484375 -3.433594 10.679688 -5.597656 C 11.714844 -7.75 12.832031 -9.910156 14.03125 -11.992188 C 16.125 -15.8125 17.996094 -19.140625 19.730469 -21.976562 C 21.382812 -24.726562 22.296875 -26.066406 22.542969 -25.996094 C 22.710938 -25.839844 23.066406 -25.128906 23.773438 -23.863281 C 24.480469 -22.601562 25.203125 -21.011719 26.09375 -19.273438 C 28.078125 -14.90625 30.605469 -11.054688 33.679688 -7.628906 C 36.753906 -4.207031 39.957031 -1.519531 43.441406 0.265625 Z M 43.441406 0.265625 "/></g></g></g></svg>