<?xml version="1.0" encoding="UTF-8"?>
<svg xmlns="http://www.w3.org/2000/svg" xmlns:xlink="http://www.w3.org/1999/xlink" width="128px" height="px" viewBox="0 0 128 52" version="1.1">
<defs>
<clipPath id="clip1">
  <path d="M 14.046875 13.964844 L 36.757812 13.964844 L 36.757812 33.648438 L 14.046875 33.648438 Z M 14.046875 13.964844 "/>
</clipPath>
<clipPath id="clip2">
  <path d="M 19.09375 13.964844 L 36.75 13.964844 L 31.703125 33.664062 L 14.046875 33.664062 L 19.09375 13.964844 "/>
</clipPath>
<clipPath id="clip3">
  <path d="M 29.195312 16.804688 L 113.960938 16.804688 L 113.960938 38.085938 L 29.195312 38.085938 Z M 29.195312 16.804688 "/>
</clipPath>
<clipPath id="clip4">
  <path d="M 34.75 16.804688 L 113.976562 16.804688 L 108.421875 38.023438 L 29.195312 38.023438 L 34.75 16.804688 "/>
</clipPath>
</defs>
<g id="surface1">
<g clip-path="url(#clip1)" clip-rule="nonzero">
<g clip-path="url(#clip2)" clip-rule="nonzero">
<path style=" stroke:none;fill-rule:nonzero;fill:rgb(7.45098%,3.921569%,28.235294%);fill-opacity:1;" d="M 14.046875 13.964844 L 36.757812 13.964844 L 36.757812 33.539062 L 14.046875 33.539062 Z M 14.046875 13.964844 "/>
</g>
</g>
<path style=" stroke:none;fill-rule:nonzero;fill:rgb(7.45098%,3.921569%,28.235294%);fill-opacity:1;" d="M 19.234375 14.417969 L 31.621094 14.417969 L 31.621094 33.210938 L 19.234375 33.210938 L 19.234375 14.417969 "/>
<path style=" stroke:none;fill-rule:nonzero;fill:rgb(100%,100%,100%);fill-opacity:1;" d="M 27.046875 24.332031 L 30.847656 29.878906 L 27.621094 29.878906 L 25.335938 26.496094 L 23.050781 29.878906 L 19.917969 29.878906 L 23.703125 24.453125 L 20.160156 19.269531 L 23.292969 19.269531 L 25.335938 22.359375 L 27.382812 19.269531 L 30.546875 19.269531 Z M 27.046875 24.332031 "/>
<g clip-path="url(#clip3)" clip-rule="nonzero">
<g clip-path="url(#clip4)" clip-rule="nonzero">
<path style=" stroke:none;fill-rule:nonzero;fill:rgb(7.45098%,3.921569%,28.235294%);fill-opacity:1;" d="M 29.195312 16.804688 L 113.910156 16.804688 L 113.910156 38.007812 L 29.195312 38.007812 Z M 29.195312 16.804688 "/>
</g>
</g>
<path style=" stroke:none;fill-rule:nonzero;fill:rgb(7.45098%,3.921569%,28.235294%);fill-opacity:1;" d="M 34.644531 17.828125 L 108.714844 17.828125 L 108.714844 36.808594 L 34.644531 36.808594 L 34.644531 17.828125 "/>
<path style=" stroke:none;fill-rule:nonzero;fill:rgb(100%,100%,100%);fill-opacity:1;" d="M 43.59375 29.878906 L 37.960938 29.878906 L 36.792969 32.53125 L 35.234375 32.53125 L 40.035156 21.921875 L 41.53125 21.921875 L 46.347656 32.53125 L 44.757812 32.53125 Z M 43.0625 28.664062 L 40.777344 23.46875 L 38.492188 28.664062 Z M 43.0625 28.664062 "/>
<path style=" stroke:none;fill-rule:nonzero;fill:rgb(100%,100%,100%);fill-opacity:1;" d="M 51.207031 32.617188 C 50.386719 32.617188 49.660156 32.441406 49.019531 32.089844 C 48.378906 31.738281 47.875 31.25 47.511719 30.628906 C 47.148438 30.007812 46.96875 29.300781 46.96875 28.515625 C 46.96875 27.726562 47.148438 27.023438 47.511719 26.398438 C 47.875 25.777344 48.378906 25.292969 49.019531 24.941406 C 49.660156 24.59375 50.386719 24.421875 51.207031 24.421875 C 51.933594 24.421875 52.582031 24.566406 53.152344 24.863281 C 53.722656 25.15625 54.164062 25.578125 54.476562 26.132812 L 53.371094 26.847656 C 53.117188 26.460938 52.804688 26.175781 52.433594 25.984375 C 52.058594 25.792969 51.644531 25.695312 51.191406 25.695312 C 50.667969 25.695312 50.195312 25.8125 49.773438 26.042969 C 49.355469 26.273438 49.027344 26.605469 48.789062 27.035156 C 48.554688 27.464844 48.4375 27.957031 48.4375 28.515625 C 48.4375 29.078125 48.554688 29.578125 48.789062 30.007812 C 49.027344 30.433594 49.355469 30.765625 49.773438 31 C 50.195312 31.230469 50.667969 31.347656 51.191406 31.347656 C 51.644531 31.347656 52.058594 31.25 52.433594 31.058594 C 52.804688 30.867188 53.117188 30.578125 53.371094 30.195312 L 54.476562 30.890625 C 54.164062 31.449219 53.722656 31.875 53.152344 32.175781 C 52.582031 32.472656 51.933594 32.617188 51.207031 32.617188 Z M 51.207031 32.617188 "/>
<path style=" stroke:none;fill-rule:nonzero;fill:rgb(100%,100%,100%);fill-opacity:1;" d="M 59.277344 24.421875 C 60.386719 24.421875 61.238281 24.695312 61.828125 25.242188 C 62.417969 25.785156 62.714844 26.597656 62.714844 27.679688 L 62.714844 32.53125 L 61.335938 32.53125 L 61.335938 31.46875 C 61.09375 31.84375 60.746094 32.128906 60.296875 32.324219 C 59.851562 32.519531 59.316406 32.617188 58.703125 32.617188 C 57.804688 32.617188 57.085938 32.402344 56.542969 31.96875 C 56.003906 31.535156 55.734375 30.960938 55.734375 30.253906 C 55.734375 29.550781 55.988281 28.980469 56.503906 28.550781 C 57.019531 28.121094 57.835938 27.90625 58.960938 27.90625 L 61.257812 27.90625 L 61.257812 27.617188 C 61.257812 26.992188 61.078125 26.511719 60.714844 26.179688 C 60.351562 25.847656 59.816406 25.679688 59.109375 25.679688 C 58.636719 25.679688 58.171875 25.757812 57.714844 25.914062 C 57.261719 26.070312 56.878906 26.28125 56.566406 26.542969 L 55.960938 25.453125 C 56.375 25.117188 56.867188 24.863281 57.445312 24.6875 C 58.019531 24.507812 58.628906 24.421875 59.277344 24.421875 Z M 58.941406 31.5 C 59.496094 31.5 59.976562 31.375 60.382812 31.128906 C 60.785156 30.878906 61.078125 30.527344 61.257812 30.074219 L 61.257812 28.953125 L 59.019531 28.953125 C 57.789062 28.953125 57.171875 29.367188 57.171875 30.195312 C 57.171875 30.597656 57.328125 30.917969 57.640625 31.152344 C 57.953125 31.382812 58.386719 31.5 58.941406 31.5 Z M 58.941406 31.5 "/>
<path style=" stroke:none;fill-rule:nonzero;fill:rgb(100%,100%,100%);fill-opacity:1;" d="M 72.976562 21.28125 L 72.976562 32.53125 L 71.585938 32.53125 L 71.585938 31.253906 C 71.261719 31.699219 70.851562 32.039062 70.359375 32.273438 C 69.863281 32.503906 69.320312 32.617188 68.722656 32.617188 C 67.945312 32.617188 67.25 32.449219 66.632812 32.105469 C 66.015625 31.761719 65.535156 31.28125 65.1875 30.65625 C 64.839844 30.035156 64.664062 29.320312 64.664062 28.515625 C 64.664062 27.703125 64.839844 26.992188 65.1875 26.375 C 65.535156 25.761719 66.015625 25.28125 66.632812 24.9375 C 67.25 24.59375 67.945312 24.421875 68.722656 24.421875 C 69.296875 24.421875 69.828125 24.53125 70.3125 24.746094 C 70.796875 24.964844 71.203125 25.285156 71.523438 25.707031 L 71.523438 21.28125 Z M 68.84375 31.347656 C 69.351562 31.347656 69.808594 31.230469 70.222656 30.992188 C 70.636719 30.753906 70.960938 30.417969 71.191406 29.988281 C 71.421875 29.5625 71.539062 29.070312 71.539062 28.515625 C 71.539062 27.957031 71.421875 27.464844 71.191406 27.035156 C 70.960938 26.605469 70.636719 26.273438 70.222656 26.042969 C 69.808594 25.8125 69.351562 25.695312 68.84375 25.695312 C 68.332031 25.695312 67.867188 25.8125 67.457031 26.042969 C 67.050781 26.273438 66.726562 26.605469 66.488281 27.035156 C 66.253906 27.464844 66.132812 27.957031 66.132812 28.515625 C 66.132812 29.070312 66.253906 29.5625 66.488281 29.988281 C 66.726562 30.417969 67.050781 30.753906 67.457031 30.992188 C 67.867188 31.230469 68.332031 31.347656 68.84375 31.347656 Z M 68.84375 31.347656 "/>
<path style=" stroke:none;fill-rule:nonzero;fill:rgb(100%,100%,100%);fill-opacity:1;" d="M 82.984375 28.558594 C 82.984375 28.667969 82.972656 28.816406 82.957031 29 L 76.445312 29 C 76.535156 29.707031 76.84375 30.273438 77.375 30.703125 C 77.90625 31.132812 78.5625 31.347656 79.351562 31.347656 C 80.3125 31.347656 81.082031 31.023438 81.667969 30.378906 L 82.472656 31.316406 C 82.105469 31.742188 81.65625 32.066406 81.113281 32.285156 C 80.574219 32.507812 79.972656 32.617188 79.304688 32.617188 C 78.457031 32.617188 77.707031 32.445312 77.050781 32.097656 C 76.394531 31.75 75.886719 31.261719 75.527344 30.636719 C 75.167969 30.007812 74.992188 29.300781 74.992188 28.515625 C 74.992188 27.734375 75.164062 27.035156 75.511719 26.40625 C 75.859375 25.78125 76.339844 25.292969 76.949219 24.941406 C 77.5625 24.59375 78.25 24.421875 79.019531 24.421875 C 79.785156 24.421875 80.46875 24.59375 81.066406 24.941406 C 81.671875 25.292969 82.140625 25.78125 82.476562 26.40625 C 82.816406 27.035156 82.984375 27.75 82.984375 28.558594 Z M 79.019531 25.648438 C 78.320312 25.648438 77.738281 25.859375 77.269531 26.285156 C 76.800781 26.710938 76.527344 27.265625 76.445312 27.953125 L 81.59375 27.953125 C 81.511719 27.277344 81.238281 26.722656 80.769531 26.292969 C 80.296875 25.863281 79.714844 25.648438 79.019531 25.648438 Z M 79.019531 25.648438 "/>
<path style=" stroke:none;fill-rule:nonzero;fill:rgb(100%,100%,100%);fill-opacity:1;" d="M 95.035156 24.421875 C 96.046875 24.421875 96.84375 24.714844 97.4375 25.300781 C 98.027344 25.886719 98.320312 26.757812 98.320312 27.90625 L 98.320312 32.53125 L 96.867188 32.53125 L 96.867188 28.074219 C 96.867188 27.296875 96.6875 26.710938 96.332031 26.316406 C 95.972656 25.925781 95.460938 25.726562 94.796875 25.726562 C 94.058594 25.726562 93.472656 25.957031 93.039062 26.417969 C 92.601562 26.875 92.386719 27.535156 92.386719 28.390625 L 92.386719 32.53125 L 90.933594 32.53125 L 90.933594 28.074219 C 90.933594 27.296875 90.753906 26.710938 90.394531 26.316406 C 90.035156 25.925781 89.523438 25.726562 88.859375 25.726562 C 88.121094 25.726562 87.535156 25.957031 87.101562 26.417969 C 86.667969 26.875 86.453125 27.535156 86.453125 28.390625 L 86.453125 32.53125 L 84.996094 32.53125 L 84.996094 24.5 L 86.390625 24.5 L 86.390625 25.695312 C 86.683594 25.28125 87.066406 24.964844 87.539062 24.746094 C 88.015625 24.53125 88.554688 24.421875 89.160156 24.421875 C 89.785156 24.421875 90.34375 24.546875 90.828125 24.800781 C 91.3125 25.054688 91.683594 25.421875 91.945312 25.90625 C 92.25 25.441406 92.671875 25.078125 93.210938 24.816406 C 93.75 24.550781 94.359375 24.421875 95.035156 24.421875 Z M 95.035156 24.421875 "/>
<path style=" stroke:none;fill-rule:nonzero;fill:rgb(100%,100%,100%);fill-opacity:1;" d="M 108.101562 24.5 L 104.210938 33.332031 C 103.867188 34.152344 103.464844 34.726562 103.003906 35.058594 C 102.546875 35.394531 101.996094 35.558594 101.347656 35.558594 C 100.953125 35.558594 100.574219 35.496094 100.203125 35.371094 C 99.835938 35.242188 99.53125 35.058594 99.292969 34.816406 L 99.910156 33.726562 C 100.324219 34.121094 100.804688 34.316406 101.347656 34.316406 C 101.703125 34.316406 102 34.222656 102.234375 34.039062 C 102.472656 33.851562 102.6875 33.53125 102.878906 33.074219 L 103.136719 32.515625 L 99.59375 24.5 L 101.105469 24.5 L 103.910156 30.921875 L 106.679688 24.5 Z M 108.101562 24.5 "/>
<path style=" stroke:none;fill-rule:nonzero;fill:rgb(88.235294%,6.666667%,6.666667%);fill-opacity:0.4;" d="M 29.375 30.539062 C 30.058594 30.910156 30.449219 31.054688 30.5625 30.972656 C 30.648438 30.910156 30.472656 30.609375 30.007812 30.097656 C 29.789062 29.871094 29.554688 29.570312 29.269531 29.183594 C 28.972656 28.8125 28.71875 28.484375 28.527344 28.183594 C 28.371094 27.953125 28.210938 27.695312 28.050781 27.40625 C 27.886719 27.117188 27.726562 26.828125 27.582031 26.523438 C 27.289062 25.960938 27.058594 25.425781 26.871094 24.929688 C 26.671875 24.4375 26.582031 24.128906 26.621094 23.996094 C 26.644531 23.875 26.851562 23.554688 27.242188 23.003906 C 27.613281 22.457031 28.046875 21.875 28.535156 21.230469 C 28.785156 20.890625 29.050781 20.570312 29.316406 20.246094 C 29.566406 19.925781 29.804688 19.632812 30.027344 19.371094 C 30.394531 18.96875 30.632812 18.660156 30.742188 18.464844 C 30.824219 18.34375 30.863281 18.222656 30.859375 18.117188 C 30.855469 18.089844 30.839844 18.0625 30.839844 18.03125 C 30.675781 17.683594 30.324219 17.746094 29.785156 18.214844 C 29.230469 18.695312 28.402344 19.652344 27.285156 21.09375 C 26.980469 21.476562 26.726562 21.800781 26.503906 22.0625 C 26.265625 22.339844 26.140625 22.492188 26.125 22.496094 C 26.09375 22.496094 26.011719 22.277344 25.902344 21.839844 C 25.761719 21.402344 25.632812 20.859375 25.488281 20.230469 C 25.25 19.25 25.089844 18.621094 25 18.34375 C 24.902344 18.082031 24.804688 17.9375 24.714844 17.914062 L 24.6875 17.914062 C 24.628906 17.917969 24.570312 17.9375 24.527344 17.96875 C 24.46875 18.015625 24.425781 18.0625 24.414062 18.121094 C 24.386719 18.179688 24.394531 18.285156 24.398438 18.433594 C 24.394531 18.59375 24.402344 18.785156 24.425781 19.023438 C 24.449219 19.464844 24.5 19.996094 24.589844 20.613281 C 24.648438 21.246094 24.734375 21.863281 24.835938 22.480469 C 24.941406 23.171875 25.027344 23.683594 25.085938 24.035156 C 24.675781 24.734375 24.359375 25.269531 24.15625 25.617188 C 23.523438 26.652344 23.035156 27.609375 22.675781 28.480469 C 22.300781 29.359375 22.058594 30.136719 21.941406 30.824219 C 21.847656 31.375 21.820312 31.746094 21.832031 31.953125 C 21.835938 32.085938 21.855469 32.144531 21.898438 32.140625 L 21.914062 32.140625 C 22.03125 32.105469 22.347656 31.605469 22.832031 30.605469 C 22.992188 30.242188 23.183594 29.863281 23.402344 29.46875 C 23.589844 29.074219 23.792969 28.683594 24.011719 28.300781 C 24.394531 27.605469 24.734375 26.996094 25.050781 26.480469 C 25.351562 25.976562 25.519531 25.734375 25.5625 25.746094 C 25.59375 25.773438 25.660156 25.902344 25.789062 26.132812 C 25.917969 26.363281 26.050781 26.65625 26.210938 26.972656 C 26.574219 27.769531 27.035156 28.472656 27.59375 29.097656 C 28.15625 29.722656 28.742188 30.214844 29.375 30.539062 Z M 29.375 30.539062 "/>
<path style=" stroke:none;fill-rule:nonzero;fill:rgb(88.235294%,6.666667%,6.666667%);fill-opacity:1;" d="M 28.679688 29.902344 C 29.359375 30.269531 29.75 30.414062 29.867188 30.335938 C 29.953125 30.273438 29.773438 29.96875 29.308594 29.460938 C 29.089844 29.234375 28.855469 28.933594 28.570312 28.546875 C 28.273438 28.175781 28.023438 27.847656 27.832031 27.546875 C 27.671875 27.316406 27.511719 27.058594 27.351562 26.769531 C 27.191406 26.480469 27.027344 26.191406 26.882812 25.886719 C 26.589844 25.324219 26.359375 24.789062 26.171875 24.292969 C 25.972656 23.800781 25.886719 23.492188 25.921875 23.359375 C 25.949219 23.238281 26.152344 22.917969 26.542969 22.367188 C 26.917969 21.816406 27.347656 21.234375 27.835938 20.589844 C 28.085938 20.253906 28.351562 19.933594 28.617188 19.609375 C 28.867188 19.285156 29.105469 18.996094 29.332031 18.734375 C 29.695312 18.332031 29.933594 18.023438 30.042969 17.828125 C 30.125 17.703125 30.164062 17.585938 30.160156 17.480469 C 30.160156 17.453125 30.140625 17.421875 30.140625 17.394531 C 29.976562 17.046875 29.625 17.105469 29.085938 17.574219 C 28.53125 18.058594 27.703125 19.015625 26.585938 20.457031 C 26.28125 20.839844 26.027344 21.164062 25.804688 21.425781 C 25.566406 21.703125 25.441406 21.855469 25.425781 21.855469 C 25.394531 21.859375 25.3125 21.640625 25.203125 21.203125 C 25.066406 20.765625 24.9375 20.222656 24.789062 19.59375 C 24.550781 18.613281 24.390625 17.984375 24.304688 17.707031 C 24.203125 17.445312 24.105469 17.300781 24.019531 17.277344 L 23.988281 17.277344 C 23.929688 17.28125 23.871094 17.296875 23.828125 17.332031 C 23.769531 17.378906 23.726562 17.421875 23.71875 17.484375 C 23.691406 17.542969 23.695312 17.648438 23.703125 17.792969 C 23.695312 17.957031 23.703125 18.148438 23.726562 18.382812 C 23.75 18.828125 23.800781 19.359375 23.890625 19.976562 C 23.949219 20.609375 24.039062 21.226562 24.140625 21.84375 C 24.246094 22.53125 24.328125 23.046875 24.386719 23.398438 C 23.976562 24.097656 23.660156 24.632812 23.457031 24.980469 C 22.824219 26.015625 22.335938 26.96875 21.976562 27.84375 C 21.605469 28.71875 21.359375 29.5 21.242188 30.1875 C 21.148438 30.738281 21.121094 31.109375 21.132812 31.316406 C 21.136719 31.449219 21.15625 31.507812 21.199219 31.503906 L 21.214844 31.503906 C 21.332031 31.46875 21.648438 30.96875 22.132812 29.96875 C 22.292969 29.605469 22.484375 29.226562 22.703125 28.832031 C 22.890625 28.4375 23.09375 28.046875 23.3125 27.664062 C 23.695312 26.96875 24.039062 26.359375 24.351562 25.839844 C 24.65625 25.339844 24.820312 25.09375 24.867188 25.109375 C 24.898438 25.136719 24.960938 25.265625 25.089844 25.496094 C 25.21875 25.726562 25.351562 26.019531 25.511719 26.335938 C 25.875 27.132812 26.335938 27.835938 26.898438 28.460938 C 27.457031 29.085938 28.042969 29.578125 28.679688 29.902344 Z M 28.679688 29.902344 "/>
</g>
</svg>
