<?xml version="1.0" encoding="UTF-8"?>
<svg xmlns="http://www.w3.org/2000/svg" xmlns:xlink="http://www.w3.org/1999/xlink" width="128px" height="px" viewBox="0 0 127 52" version="1.1">
<defs>
<clipPath id="clip1">
  <path d="M 13.804688 13.855469 L 36.621094 13.855469 L 36.621094 33.746094 L 13.804688 33.746094 Z M 13.804688 13.855469 "/>
</clipPath>
<clipPath id="clip2">
  <path d="M 18.875 13.855469 L 36.613281 13.855469 L 31.542969 33.75 L 13.804688 33.75 L 18.875 13.855469 "/>
</clipPath>
<clipPath id="clip3">
  <path d="M 13.804688 13.855469 L 36.648438 13.855469 L 36.648438 33.710938 L 13.804688 33.710938 Z M 13.804688 13.855469 "/>
</clipPath>
<clipPath id="clip4">
  <path d="M 18.882812 13.855469 L 36.648438 13.855469 L 31.570312 33.710938 L 13.804688 33.710938 L 18.882812 13.855469 "/>
</clipPath>
<clipPath id="clip5">
  <path d="M 28.035156 16.722656 L 113.253906 16.722656 L 113.253906 38.171875 L 28.035156 38.171875 Z M 28.035156 16.722656 "/>
</clipPath>
<clipPath id="clip6">
  <path d="M 33.617188 16.722656 L 113.21875 16.722656 L 107.636719 38.148438 L 28.035156 38.148438 L 33.617188 16.722656 "/>
</clipPath>
<clipPath id="clip7">
  <path d="M 28.042969 16.722656 L 113.195312 16.722656 L 113.195312 38.238281 L 28.042969 38.238281 Z M 28.042969 16.722656 "/>
</clipPath>
<clipPath id="clip8">
  <path d="M 33.621094 16.722656 L 113.191406 16.722656 L 107.613281 38.238281 L 28.042969 38.238281 L 33.621094 16.722656 "/>
</clipPath>
</defs>
<g id="surface1">
<g clip-path="url(#clip1)" clip-rule="nonzero">
<g clip-path="url(#clip2)" clip-rule="nonzero">
<path style=" stroke:none;fill-rule:nonzero;fill:rgb(100%,100%,100%);fill-opacity:1;" d="M 13.804688 13.855469 L 36.621094 13.855469 L 36.621094 33.621094 L 13.804688 33.621094 Z M 13.804688 13.855469 "/>
</g>
</g>
<g clip-path="url(#clip3)" clip-rule="nonzero">
<g clip-path="url(#clip4)" clip-rule="nonzero">
<path style="fill:none;stroke-width:1.504219;stroke-linecap:butt;stroke-linejoin:miter;stroke:rgb(0%,0%,0%);stroke-opacity:1;stroke-miterlimit:4;" d="M 27.739411 0.00855435 L 124.795692 0.00855435 L 97.053131 108.192264 L -0.00314927 108.192264 L 27.739411 0.00855435 " transform="matrix(0.183045,0,0,0.183535,13.805264,13.853899)"/>
</g>
</g>
<path style=" stroke:none;fill-rule:nonzero;fill:rgb(7.45098%,3.921569%,28.235294%);fill-opacity:1;" d="M 25.882812 24.324219 L 29.699219 29.921875 L 26.457031 29.921875 L 24.160156 26.507812 L 21.863281 29.921875 L 18.71875 29.921875 L 22.519531 24.445312 L 18.960938 19.210938 L 22.109375 19.210938 L 24.160156 22.332031 L 26.214844 19.210938 L 29.394531 19.210938 Z M 25.882812 24.324219 "/>
<g clip-path="url(#clip5)" clip-rule="nonzero">
<g clip-path="url(#clip6)" clip-rule="nonzero">
<path style=" stroke:none;fill-rule:nonzero;fill:rgb(100%,100%,100%);fill-opacity:1;" d="M 28.035156 16.722656 L 113.152344 16.722656 L 113.152344 38.132812 L 28.035156 38.132812 Z M 28.035156 16.722656 "/>
</g>
</g>
<g clip-path="url(#clip7)" clip-rule="nonzero">
<g clip-path="url(#clip8)" clip-rule="nonzero">
<path style="fill:none;stroke-width:1.504219;stroke-linecap:butt;stroke-linejoin:miter;stroke:rgb(0%,0%,0%);stroke-opacity:1;stroke-miterlimit:4;" d="M 30.5414 -0.00266772 L 466.055689 -0.00266772 L 435.52479 116.522079 L 0.0105018 116.522079 L 30.5414 -0.00266772 " transform="matrix(0.182704,0,0,0.184644,28.04105,16.723149)"/>
</g>
</g>
<path style=" stroke:none;fill-rule:nonzero;fill:rgb(7.45098%,3.921569%,28.235294%);fill-opacity:1;" d="M 43.492188 30.085938 L 37.835938 30.085938 L 36.664062 32.765625 L 35.097656 32.765625 L 39.921875 22.054688 L 41.421875 22.054688 L 46.261719 32.765625 L 44.664062 32.765625 Z M 42.960938 28.863281 L 40.664062 23.613281 L 38.367188 28.863281 Z M 42.960938 28.863281 "/>
<path style=" stroke:none;fill-rule:nonzero;fill:rgb(7.45098%,3.921569%,28.235294%);fill-opacity:1;" d="M 51.140625 32.859375 C 50.320312 32.859375 49.589844 32.679688 48.945312 32.320312 C 48.300781 31.964844 47.796875 31.472656 47.429688 30.847656 C 47.066406 30.21875 46.882812 29.507812 46.882812 28.707031 C 46.882812 27.914062 47.066406 27.203125 47.429688 26.578125 C 47.796875 25.949219 48.300781 25.457031 48.945312 25.109375 C 49.589844 24.753906 50.320312 24.578125 51.140625 24.578125 C 51.871094 24.578125 52.523438 24.726562 53.097656 25.019531 C 53.671875 25.316406 54.113281 25.746094 54.429688 26.304688 L 53.316406 27.027344 C 53.0625 26.640625 52.75 26.347656 52.375 26.152344 C 52 25.960938 51.582031 25.863281 51.128906 25.863281 C 50.601562 25.863281 50.125 25.980469 49.703125 26.214844 C 49.285156 26.453125 48.953125 26.785156 48.714844 27.21875 C 48.476562 27.652344 48.359375 28.148438 48.359375 28.707031 C 48.359375 29.28125 48.476562 29.785156 48.714844 30.21875 C 48.953125 30.652344 49.285156 30.984375 49.703125 31.222656 C 50.125 31.457031 50.601562 31.574219 51.128906 31.574219 C 51.582031 31.574219 52 31.476562 52.375 31.28125 C 52.75 31.089844 53.0625 30.796875 53.316406 30.410156 L 54.429688 31.113281 C 54.113281 31.671875 53.671875 32.105469 53.097656 32.40625 C 52.523438 32.707031 51.871094 32.859375 51.140625 32.859375 Z M 51.140625 32.859375 "/>
<path style=" stroke:none;fill-rule:nonzero;fill:rgb(7.45098%,3.921569%,28.235294%);fill-opacity:1;" d="M 59.25 24.578125 C 60.367188 24.578125 61.21875 24.851562 61.8125 25.402344 C 62.402344 25.957031 62.703125 26.777344 62.703125 27.867188 L 62.703125 32.765625 L 61.316406 32.765625 L 61.316406 31.695312 C 61.074219 32.074219 60.726562 32.363281 60.277344 32.5625 C 59.824219 32.757812 59.289062 32.859375 58.671875 32.859375 C 57.769531 32.859375 57.046875 32.640625 56.503906 32.199219 C 55.960938 31.761719 55.691406 31.183594 55.691406 30.46875 C 55.691406 29.753906 55.949219 29.179688 56.464844 28.75 C 56.980469 28.316406 57.804688 28.097656 58.929688 28.097656 L 61.242188 28.097656 L 61.242188 27.808594 C 61.242188 27.175781 61.058594 26.691406 60.695312 26.355469 C 60.328125 26.015625 59.792969 25.847656 59.082031 25.847656 C 58.605469 25.847656 58.140625 25.929688 57.683594 26.085938 C 57.226562 26.246094 56.839844 26.457031 56.527344 26.722656 L 55.917969 25.617188 C 56.332031 25.28125 56.832031 25.023438 57.410156 24.84375 C 57.988281 24.667969 58.601562 24.578125 59.25 24.578125 Z M 58.914062 31.726562 C 59.472656 31.726562 59.953125 31.601562 60.359375 31.351562 C 60.765625 31.101562 61.058594 30.746094 61.242188 30.285156 L 61.242188 29.152344 L 58.992188 29.152344 C 57.753906 29.152344 57.132812 29.570312 57.132812 30.410156 C 57.132812 30.816406 57.292969 31.136719 57.605469 31.375 C 57.921875 31.609375 58.359375 31.726562 58.914062 31.726562 Z M 58.914062 31.726562 "/>
<path style=" stroke:none;fill-rule:nonzero;fill:rgb(7.45098%,3.921569%,28.235294%);fill-opacity:1;" d="M 73.011719 21.40625 L 73.011719 32.765625 L 71.617188 32.765625 L 71.617188 31.480469 C 71.292969 31.929688 70.878906 32.273438 70.382812 32.507812 C 69.886719 32.742188 69.339844 32.859375 68.742188 32.859375 C 67.960938 32.859375 67.261719 32.683594 66.640625 32.339844 C 66.023438 31.992188 65.539062 31.503906 65.1875 30.875 C 64.839844 30.246094 64.664062 29.527344 64.664062 28.707031 C 64.664062 27.894531 64.839844 27.171875 65.1875 26.550781 C 65.539062 25.929688 66.023438 25.445312 66.640625 25.097656 C 67.261719 24.75 67.960938 24.578125 68.742188 24.578125 C 69.320312 24.578125 69.851562 24.6875 70.335938 24.90625 C 70.824219 25.125 71.226562 25.449219 71.554688 25.878906 L 71.554688 21.40625 Z M 68.863281 31.574219 C 69.367188 31.574219 69.828125 31.453125 70.246094 31.210938 C 70.660156 30.972656 70.984375 30.636719 71.21875 30.203125 C 71.453125 29.769531 71.570312 29.269531 71.570312 28.707031 C 71.570312 28.148438 71.453125 27.652344 71.21875 27.21875 C 70.984375 26.785156 70.660156 26.453125 70.246094 26.214844 C 69.828125 25.980469 69.367188 25.863281 68.863281 25.863281 C 68.34375 25.863281 67.878906 25.980469 67.46875 26.214844 C 67.058594 26.453125 66.734375 26.785156 66.496094 27.21875 C 66.257812 27.652344 66.136719 28.148438 66.136719 28.707031 C 66.136719 29.269531 66.257812 29.769531 66.496094 30.203125 C 66.734375 30.636719 67.058594 30.972656 67.46875 31.210938 C 67.878906 31.453125 68.34375 31.574219 68.863281 31.574219 Z M 68.863281 31.574219 "/>
<path style=" stroke:none;fill-rule:nonzero;fill:rgb(7.45098%,3.921569%,28.235294%);fill-opacity:1;" d="M 83.066406 28.753906 C 83.066406 28.867188 83.058594 29.015625 83.035156 29.199219 L 76.496094 29.199219 C 76.589844 29.914062 76.898438 30.488281 77.433594 30.921875 C 77.964844 31.355469 78.628906 31.574219 79.417969 31.574219 C 80.382812 31.574219 81.15625 31.246094 81.746094 30.59375 L 82.550781 31.542969 C 82.183594 31.96875 81.730469 32.296875 81.191406 32.519531 C 80.648438 32.746094 80.042969 32.859375 79.371094 32.859375 C 78.519531 32.859375 77.765625 32.683594 77.105469 32.332031 C 76.445312 31.976562 75.933594 31.484375 75.574219 30.851562 C 75.214844 30.222656 75.035156 29.507812 75.035156 28.707031 C 75.035156 27.925781 75.210938 27.214844 75.558594 26.582031 C 75.910156 25.949219 76.394531 25.457031 77.007812 25.109375 C 77.617188 24.753906 78.3125 24.578125 79.082031 24.578125 C 79.851562 24.578125 80.539062 24.753906 81.144531 25.109375 C 81.746094 25.457031 82.21875 25.949219 82.558594 26.582031 C 82.898438 27.214844 83.066406 27.9375 83.066406 28.753906 Z M 79.082031 25.816406 C 78.382812 25.816406 77.796875 26.03125 77.328125 26.460938 C 76.855469 26.890625 76.578125 27.453125 76.496094 28.144531 L 81.667969 28.144531 C 81.585938 27.460938 81.3125 26.902344 80.839844 26.46875 C 80.367188 26.035156 79.78125 25.816406 79.082031 25.816406 Z M 79.082031 25.816406 "/>
<path style=" stroke:none;fill-rule:nonzero;fill:rgb(7.45098%,3.921569%,28.235294%);fill-opacity:1;" d="M 95.175781 24.578125 C 96.1875 24.578125 96.992188 24.875 97.585938 25.464844 C 98.179688 26.058594 98.476562 26.933594 98.476562 28.097656 L 98.476562 32.765625 L 97.015625 32.765625 L 97.015625 28.265625 C 97.015625 27.480469 96.835938 26.886719 96.472656 26.492188 C 96.113281 26.09375 95.601562 25.894531 94.929688 25.894531 C 94.191406 25.894531 93.601562 26.125 93.167969 26.589844 C 92.730469 27.054688 92.515625 27.71875 92.515625 28.589844 L 92.515625 32.765625 L 91.054688 32.765625 L 91.054688 28.265625 C 91.054688 27.480469 90.871094 26.886719 90.511719 26.492188 C 90.152344 26.09375 89.640625 25.894531 88.96875 25.894531 C 88.226562 25.894531 87.640625 26.125 87.203125 26.589844 C 86.765625 27.054688 86.550781 27.71875 86.550781 28.589844 L 86.550781 32.765625 L 85.089844 32.765625 L 85.089844 24.65625 L 86.488281 24.65625 L 86.488281 25.863281 C 86.78125 25.445312 87.167969 25.125 87.644531 24.90625 C 88.121094 24.6875 88.664062 24.578125 89.273438 24.578125 C 89.902344 24.578125 90.460938 24.707031 90.945312 24.960938 C 91.429688 25.214844 91.808594 25.589844 92.074219 26.078125 C 92.375 25.609375 92.796875 25.238281 93.339844 24.976562 C 93.882812 24.710938 94.492188 24.578125 95.175781 24.578125 Z M 95.175781 24.578125 "/>
<path style=" stroke:none;fill-rule:nonzero;fill:rgb(7.45098%,3.921569%,28.235294%);fill-opacity:1;" d="M 108.300781 24.65625 L 104.390625 33.578125 C 104.046875 34.402344 103.644531 34.984375 103.179688 35.320312 C 102.71875 35.65625 102.164062 35.824219 101.515625 35.824219 C 101.121094 35.824219 100.734375 35.761719 100.367188 35.636719 C 99.996094 35.507812 99.691406 35.320312 99.445312 35.078125 L 100.070312 33.976562 C 100.488281 34.375 100.96875 34.570312 101.515625 34.570312 C 101.871094 34.570312 102.164062 34.476562 102.40625 34.285156 C 102.644531 34.097656 102.859375 33.773438 103.050781 33.316406 L 103.308594 32.75 L 99.75 24.65625 L 101.273438 24.65625 L 104.085938 31.144531 L 106.867188 24.65625 Z M 108.300781 24.65625 "/>
<path style=" stroke:none;fill-rule:nonzero;fill:rgb(88.235294%,6.666667%,6.666667%);fill-opacity:0.4;" d="M 29.207031 30.59375 C 29.890625 30.964844 30.285156 31.109375 30.398438 31.03125 C 30.484375 30.96875 30.308594 30.660156 29.839844 30.144531 C 29.621094 29.917969 29.382812 29.613281 29.097656 29.222656 C 28.800781 28.847656 28.546875 28.515625 28.355469 28.210938 C 28.195312 27.980469 28.035156 27.71875 27.875 27.425781 C 27.710938 27.136719 27.550781 26.84375 27.402344 26.539062 C 27.109375 25.96875 26.875 25.425781 26.691406 24.929688 C 26.488281 24.429688 26.402344 24.121094 26.4375 23.984375 C 26.460938 23.863281 26.671875 23.539062 27.0625 22.984375 C 27.4375 22.429688 27.871094 21.839844 28.359375 21.191406 C 28.613281 20.851562 28.878906 20.523438 29.144531 20.195312 C 29.398438 19.871094 29.636719 19.578125 29.863281 19.3125 C 30.230469 18.90625 30.46875 18.597656 30.578125 18.398438 C 30.660156 18.273438 30.699219 18.152344 30.695312 18.046875 C 30.695312 18.019531 30.679688 17.988281 30.675781 17.960938 C 30.511719 17.609375 30.160156 17.671875 29.617188 18.144531 C 29.058594 18.632812 28.226562 19.597656 27.105469 21.054688 C 26.796875 21.441406 26.546875 21.765625 26.320312 22.03125 C 26.078125 22.3125 25.953125 22.464844 25.9375 22.46875 C 25.910156 22.46875 25.824219 22.25 25.714844 21.804688 C 25.578125 21.363281 25.449219 20.816406 25.300781 20.179688 C 25.0625 19.191406 24.898438 18.558594 24.8125 18.277344 C 24.710938 18.011719 24.613281 17.867188 24.523438 17.839844 L 24.492188 17.84375 C 24.433594 17.847656 24.375 17.863281 24.332031 17.894531 C 24.277344 17.941406 24.234375 17.988281 24.222656 18.050781 C 24.195312 18.109375 24.199219 18.214844 24.207031 18.363281 C 24.199219 18.53125 24.207031 18.722656 24.234375 18.960938 C 24.253906 19.410156 24.308594 19.945312 24.398438 20.566406 C 24.457031 21.207031 24.542969 21.828125 24.644531 22.453125 C 24.753906 23.148438 24.835938 23.667969 24.894531 24.023438 C 24.484375 24.730469 24.167969 25.269531 23.960938 25.621094 C 23.324219 26.667969 22.835938 27.632812 22.472656 28.515625 C 22.097656 29.398438 21.851562 30.1875 21.734375 30.878906 C 21.644531 31.4375 21.617188 31.8125 21.625 32.019531 C 21.632812 32.15625 21.648438 32.214844 21.691406 32.210938 L 21.707031 32.210938 C 21.824219 32.175781 22.144531 31.667969 22.632812 30.660156 C 22.792969 30.292969 22.984375 29.910156 23.203125 29.511719 C 23.390625 29.113281 23.597656 28.714844 23.816406 28.332031 C 24.199219 27.628906 24.542969 27.015625 24.863281 26.492188 C 25.164062 25.984375 25.332031 25.738281 25.375 25.75 C 25.40625 25.78125 25.472656 25.910156 25.601562 26.144531 C 25.730469 26.375 25.863281 26.667969 26.027344 26.988281 C 26.390625 27.796875 26.855469 28.503906 27.417969 29.136719 C 27.980469 29.769531 28.566406 30.265625 29.207031 30.59375 Z M 29.207031 30.59375 "/>
<path style=" stroke:none;fill-rule:nonzero;fill:rgb(88.235294%,6.666667%,6.666667%);fill-opacity:1;" d="M 28.503906 29.949219 C 29.191406 30.320312 29.582031 30.46875 29.699219 30.386719 C 29.785156 30.324219 29.605469 30.019531 29.136719 29.5 C 28.917969 29.273438 28.683594 28.96875 28.398438 28.582031 C 28.097656 28.207031 27.847656 27.875 27.652344 27.570312 C 27.496094 27.335938 27.335938 27.074219 27.171875 26.785156 C 27.011719 26.492188 26.847656 26.203125 26.699219 25.894531 C 26.40625 25.324219 26.175781 24.785156 25.988281 24.285156 C 25.789062 23.785156 25.699219 23.476562 25.738281 23.339844 C 25.761719 23.21875 25.96875 22.894531 26.359375 22.339844 C 26.734375 21.785156 27.167969 21.195312 27.660156 20.546875 C 27.910156 20.207031 28.175781 19.878906 28.445312 19.554688 C 28.695312 19.226562 28.933594 18.933594 29.160156 18.667969 C 29.527344 18.261719 29.765625 17.953125 29.875 17.753906 C 29.960938 17.632812 30 17.507812 29.996094 17.40625 C 29.992188 17.375 29.976562 17.34375 29.976562 17.316406 C 29.8125 16.964844 29.457031 17.027344 28.914062 17.5 C 28.359375 17.988281 27.527344 18.953125 26.40625 20.410156 C 26.097656 20.796875 25.84375 21.125 25.617188 21.386719 C 25.378906 21.667969 25.253906 21.824219 25.238281 21.824219 C 25.207031 21.824219 25.125 21.605469 25.015625 21.160156 C 24.875 20.71875 24.746094 20.171875 24.597656 19.539062 C 24.359375 18.546875 24.195312 17.914062 24.109375 17.632812 C 24.007812 17.367188 23.914062 17.222656 23.824219 17.199219 L 23.792969 17.199219 C 23.734375 17.203125 23.675781 17.21875 23.632812 17.253906 C 23.574219 17.300781 23.53125 17.347656 23.519531 17.40625 C 23.492188 17.46875 23.5 17.570312 23.503906 17.722656 C 23.496094 17.886719 23.507812 18.078125 23.53125 18.316406 C 23.554688 18.765625 23.605469 19.300781 23.695312 19.921875 C 23.753906 20.5625 23.84375 21.1875 23.945312 21.808594 C 24.050781 22.507812 24.132812 23.023438 24.195312 23.382812 C 23.78125 24.085938 23.464844 24.625 23.257812 24.980469 C 22.625 26.023438 22.132812 26.988281 21.773438 27.871094 C 21.398438 28.753906 21.152344 29.542969 21.035156 30.234375 C 20.941406 30.792969 20.914062 31.167969 20.921875 31.378906 C 20.929688 31.511719 20.945312 31.570312 20.992188 31.566406 L 21.007812 31.566406 C 21.125 31.53125 21.441406 31.023438 21.929688 30.015625 C 22.089844 29.648438 22.28125 29.265625 22.5 28.867188 C 22.691406 28.472656 22.894531 28.074219 23.117188 27.6875 C 23.5 26.984375 23.84375 26.371094 24.160156 25.847656 C 24.460938 25.339844 24.628906 25.09375 24.675781 25.105469 C 24.707031 25.136719 24.769531 25.265625 24.902344 25.5 C 25.03125 25.734375 25.164062 26.027344 25.324219 26.347656 C 25.691406 27.152344 26.152344 27.863281 26.714844 28.492188 C 27.28125 29.125 27.867188 29.621094 28.503906 29.949219 Z M 28.503906 29.949219 "/>
</g>
</svg>
